<svg width="46" height="34" viewBox="0 0 46 34" fill="none" xmlns="http://www.w3.org/2000/svg">
<path d="M45.4999 17C45.5094 20.5722 44.3505 24.0495 42.1999 26.9019C42.0815 27.0595 41.9332 27.1922 41.7635 27.2924C41.5937 27.3927 41.4059 27.4586 41.2108 27.4862C41.0156 27.5139 40.8169 27.5029 40.6259 27.4538C40.435 27.4047 40.2557 27.3184 40.0981 27.2C39.9405 27.0816 39.8078 26.9332 39.7075 26.7635C39.6072 26.5938 39.5414 26.406 39.5137 26.2108C39.486 26.0156 39.497 25.8169 39.5462 25.626C39.5953 25.4351 39.6815 25.2557 39.7999 25.0981C41.5602 22.7661 42.5086 19.9218 42.4999 17C42.4999 13.4196 41.0776 9.98579 38.5459 7.45405C36.0141 4.92231 32.5804 3.49999 28.9999 3.49999C25.4195 3.49999 21.9857 4.92231 19.454 7.45405C16.9223 9.98579 15.4999 13.4196 15.4999 17C15.4999 17.3978 15.3419 17.7793 15.0606 18.0607C14.7793 18.342 14.3978 18.5 13.9999 18.5C13.6021 18.5 13.2206 18.342 12.9393 18.0607C12.658 17.7793 12.4999 17.3978 12.4999 17C12.4992 15.4863 12.7068 13.9796 13.1168 12.5225C12.9124 12.5 12.7062 12.5 12.4999 12.5C10.113 12.5 7.82381 13.4482 6.13599 15.136C4.44816 16.8239 3.49995 19.113 3.49995 21.5C3.49995 23.8869 4.44816 26.1761 6.13599 27.864C7.82381 29.5518 10.113 30.5 12.4999 30.5H16.9999C17.3978 30.5 17.7793 30.658 18.0606 30.9393C18.3419 31.2206 18.4999 31.6022 18.4999 32C18.4999 32.3978 18.3419 32.7794 18.0606 33.0607C17.7793 33.342 17.3978 33.5 16.9999 33.5H12.4999C10.8503 33.5004 9.21824 33.1606 7.70578 32.5019C6.19332 31.8432 4.83291 30.8798 3.70952 29.6717C2.58614 28.4636 1.7239 27.0369 1.17667 25.4807C0.629436 23.9244 0.40896 22.272 0.52901 20.6267C0.649061 18.9814 1.10706 17.3786 1.8744 15.9182C2.64174 14.4579 3.70195 13.1714 4.9888 12.1392C6.27564 11.107 7.7615 10.3512 9.35356 9.91908C10.9456 9.48692 12.6097 9.38765 14.2418 9.62749C15.9038 6.30341 18.6393 3.63776 22.0053 2.0623C25.3713 0.486846 29.1705 0.0938619 32.7877 0.947002C36.4049 1.80014 39.6281 3.84944 41.9353 6.76296C44.2425 9.67648 45.4985 13.2836 45.4999 17ZM28.5612 15.9387C28.4219 15.7993 28.2565 15.6886 28.0744 15.6132C27.8923 15.5377 27.6971 15.4988 27.4999 15.4988C27.3028 15.4988 27.1076 15.5377 26.9255 15.6132C26.7434 15.6886 26.578 15.7993 26.4387 15.9387L20.4387 21.9387C20.2993 22.0781 20.1888 22.2436 20.1134 22.4256C20.0379 22.6077 19.9991 22.8029 19.9991 23C19.9991 23.1971 20.0379 23.3922 20.1134 23.5743C20.1888 23.7564 20.2993 23.9219 20.4387 24.0612C20.7202 24.3427 21.1019 24.5008 21.4999 24.5008C21.697 24.5008 21.8922 24.462 22.0743 24.3866C22.2564 24.3112 22.4218 24.2006 22.5612 24.0612L25.9999 20.6206V32C25.9999 32.3978 26.158 32.7794 26.4393 33.0607C26.7206 33.342 27.1021 33.5 27.4999 33.5C27.8978 33.5 28.2793 33.342 28.5606 33.0607C28.8419 32.7794 28.9999 32.3978 28.9999 32V20.6206L32.4387 24.0612C32.5781 24.2006 32.7435 24.3112 32.9256 24.3866C33.1077 24.462 33.3029 24.5008 33.4999 24.5008C33.697 24.5008 33.8922 24.462 34.0743 24.3866C34.2564 24.3112 34.4218 24.2006 34.5612 24.0612C34.7006 23.9219 34.8111 23.7564 34.8865 23.5743C34.962 23.3922 35.0008 23.1971 35.0008 23C35.0008 22.8029 34.962 22.6077 34.8865 22.4256C34.8111 22.2436 34.7006 22.0781 34.5612 21.9387L28.5612 15.9387Z" fill="#7C3AED"/>
</svg>
